<?xml version="1.0" encoding="iso-8859-1"?>
<!-- Uploaded to: SVG Repo, www.svgrepo.com, Generator: SVG Repo Mixer Tools -->
<!DOCTYPE svg PUBLIC "-//W3C//DTD SVG 1.1//EN" "http://www.w3.org/Graphics/SVG/1.1/DTD/svg11.dtd">
<svg fill="white" height="800px" width="800px" version="1.1" id="Capa_1" xmlns="http://www.w3.org/2000/svg" xmlns:xlink="http://www.w3.org/1999/xlink" 
	 viewBox="0 0 347.873 347.873" xml:space="preserve">
<g>
	<g>
		<path d="M164.51,112.935c-20.5,0-35.38,15.327-35.38,36.443c0,21.184,14.879,36.56,35.38,36.561c0,0,0,0,0.001,0
			c11.006-0.001,20.829-4.083,27.656-11.493c0.936-1.015,0.871-2.597-0.145-3.532l-5.147-4.743
			c-1.014-0.935-2.596-0.871-3.532,0.144c-4.53,4.916-11.218,7.624-18.833,7.625c-11.578-0.001-20.432-7.347-22.773-18.561
			l54.591-0.001c1.38,0,2.5-1.119,2.5-2.5v-3.5C198.829,127.92,184.716,112.935,164.51,112.935z M164.51,124.935
			c11.54,0,19.686,6.991,21.788,18.442l-44.555,0.001C144.095,132.234,152.944,124.935,164.51,124.935z"/>
		<path d="M236.276,112.935c-20.638,0-35.617,15.326-35.617,36.442c0,21.185,14.979,36.562,35.617,36.562
			c9.88,0,18.928-3.697,25.476-10.409c6.541-6.705,10.142-15.993,10.141-26.152C271.893,128.261,256.914,112.935,236.276,112.935z
			 M236.276,173.939c-13.685,0-23.617-10.33-23.617-24.562c0-14.163,9.933-24.442,23.617-24.442
			c13.685,0,23.617,10.28,23.617,24.443c0,7.011-2.39,13.323-6.731,17.773C248.892,171.527,242.895,173.939,236.276,173.939z"/>
		<path d="M104.686,144.243c-11.023-3.418-14.937-5.545-14.937-10.678c0-7.79,9.337-8.631,13.352-8.631
			c4.802,0,9.144,1.164,13.276,3.557c1.195,0.692,2.724,0.284,3.416-0.91l3.509-6.057c0.692-1.195,0.285-2.725-0.91-3.417
			c-6.009-3.481-12.319-5.174-19.291-5.174c-15.164,0-25.352,8.291-25.352,20.631c0,14.889,13.515,19.08,23.382,22.139
			c10.845,3.363,13.459,5.086,13.32,8.772c-0.264,6.589-9.386,7.101-12.176,7.101c-6.386,0-11.954-2.143-16.101-6.196
			c-0.474-0.463-1.068-0.7-1.776-0.712c-0.663,0.008-1.295,0.278-1.759,0.752l-4.893,5.006c-0.965,0.987-0.947,2.57,0.041,3.535
			c6.343,6.2,15.04,9.615,24.489,9.615c14.229,0,23.714-7.313,24.166-18.635C126.963,151.15,114.087,147.158,104.686,144.243z"/>
	</g>
	<path d="M337.873,33.937H10c-5.523,0-10,4.477-10,10v210.393c0,5.523,4.477,10,10,10h114.979
		c-4.407,21.476-14.601,32.572-14.674,32.651c-2.793,2.885-3.59,7.16-2.023,10.857c1.566,3.697,5.192,6.099,9.207,6.099h112.895
		c4.015,0,7.641-2.402,9.207-6.099c1.566-3.697,0.77-7.973-2.024-10.857c-0.118-0.122-10.279-11.174-14.676-32.651h114.982
		c5.523,0,10-4.477,10-10V43.937C347.873,38.414,343.396,33.937,337.873,33.937z M327.873,244.329h-16.311v-2.816
		c0-5.523-4.477-10-10-10c-5.523,0-10,4.477-10,10v2.816h-10.439v-2.816c0-5.523-4.477-10-10-10c-5.523,0-10,4.477-10,10v2.816
		h-49.782h-74.809H20V53.937h307.873V244.329z"/>
</g>
</svg>