<svg width="40" height="36" viewBox="0 0 40 36" fill="none" xmlns="http://www.w3.org/2000/svg">
<path d="M0.652995 6.08926C-0.215061 5.21035 -0.215061 3.79004 0.652995 2.91113C1.52105 2.03223 2.93077 2.03223 3.79883 2.91113L17.1322 16.4111C18.0002 17.29 18.0002 18.7174 17.1322 19.5963L3.79883 33.0963C2.93077 33.9752 1.52105 33.9752 0.652995 33.0963C-0.215061 32.2174 -0.215061 30.79 0.652995 29.9111L12.4099 18.0002L0.652995 6.08926ZM17.778 29.2502H37.778C39.0072 29.2502 40.0002 30.2557 40.0002 31.5002C40.0002 32.7447 39.0072 33.7502 37.778 33.7502H17.778C16.5488 33.7502 15.5558 32.7447 15.5558 31.5002C15.5558 30.2557 16.5488 29.2502 17.778 29.2502Z" fill="white"/>
</svg>
