<svg width="42" height="42" viewBox="0 0 42 42" fill="none" xmlns="http://www.w3.org/2000/svg">
<path d="M3.70327 22.2633C3.73554 22.2758 3.76874 22.2841 3.80193 22.2942C3.86278 22.3127 3.92364 22.3283 3.98772 22.3385C4.00431 22.3413 4.01999 22.3482 4.03659 22.35C4.09237 22.3565 4.14723 22.3597 4.20209 22.3597C4.29429 22.3597 4.38557 22.35 4.47501 22.332C4.52941 22.321 4.58012 22.3016 4.63222 22.2846C4.66587 22.2735 4.70045 22.2666 4.73318 22.2532C4.79219 22.2288 4.84659 22.196 4.90099 22.1638C4.92358 22.1504 4.94847 22.1407 4.9706 22.126C5.04621 22.0753 5.11675 22.0176 5.18129 21.9531L8.7182 18.4162C9.25851 17.8763 9.25851 17.0004 8.7182 16.4605C8.17835 15.9202 7.30242 15.9202 6.76257 16.4605L6.06505 17.1581C7.76805 10.5056 13.8133 5.57273 20.9891 5.57273C26.979 5.57273 32.472 9.08798 34.9827 14.5289C35.3022 15.2223 36.1247 15.5247 36.8176 15.2052C37.5114 14.8853 37.8138 14.0633 37.4939 13.3699C34.5328 6.95302 28.0541 2.80664 20.9891 2.80664C12.3953 2.80664 5.18083 8.80584 3.30127 16.8344L2.79553 16.0032C2.39814 15.3504 1.54756 15.143 0.894764 15.5408C0.242427 15.9377 0.0349701 16.7888 0.432366 17.4416L3.02051 21.6954C3.02558 21.7037 3.03295 21.7097 3.03803 21.718C3.0809 21.7848 3.13023 21.8466 3.18371 21.9051C3.19615 21.919 3.2063 21.9346 3.2192 21.948C3.28744 22.0167 3.36258 22.078 3.44418 22.1315C3.46539 22.1453 3.4889 22.155 3.51103 22.1679C3.57234 22.2039 3.63596 22.2371 3.70327 22.2633Z" fill="white"/>
<path d="M41.5201 24.5119L38.9319 20.2581C38.9273 20.2502 38.9204 20.2442 38.9153 20.2364C38.8715 20.1677 38.8208 20.1041 38.766 20.0442C38.7549 20.0317 38.7457 20.0174 38.7341 20.0054C38.6659 19.9363 38.5903 19.875 38.5087 19.8215C38.488 19.8077 38.4649 19.7984 38.4432 19.786C38.381 19.7496 38.3169 19.7164 38.2492 19.6901C38.2169 19.6777 38.1837 19.6698 38.1505 19.6597C38.0896 19.6412 38.0288 19.6256 37.9647 19.6154C37.9481 19.6127 37.9324 19.6057 37.9154 19.6039C37.8914 19.6011 37.8679 19.6053 37.8439 19.6034C37.8126 19.6011 37.7826 19.5938 37.7508 19.5938C37.7227 19.5938 37.6969 19.6002 37.6692 19.602C37.6263 19.6044 37.5844 19.6085 37.542 19.615C37.4829 19.6237 37.4267 19.6375 37.3705 19.6537C37.3336 19.6643 37.2972 19.674 37.2617 19.6873C37.1994 19.7108 37.1409 19.7408 37.0832 19.7726C37.056 19.7878 37.0279 19.7998 37.0016 19.8169C36.9187 19.8704 36.8408 19.9308 36.7711 20.0004L33.2342 23.5373C32.6939 24.0771 32.6939 24.9531 33.2342 25.4929C33.7745 26.0332 34.6495 26.0332 35.1899 25.4929L35.8874 24.7954C34.1844 31.4478 28.1391 36.3807 20.9634 36.3807C14.7586 36.3807 9.18719 32.6875 6.76963 26.9723C6.47181 26.2688 5.66088 25.9382 4.95691 26.2374C4.2534 26.5353 3.92424 27.3462 4.22206 28.0502C7.07344 34.7911 13.6448 39.1468 20.9634 39.1468C29.5572 39.1468 36.7716 33.1476 38.6512 25.1186L39.1569 25.9498C39.4169 26.3776 39.8729 26.6136 40.3394 26.6136C40.5842 26.6136 40.8322 26.5486 41.0572 26.4122C41.71 26.0152 41.9175 25.1647 41.5201 24.5119Z" fill="white"/>
</svg>
