<svg width="43" height="34" viewBox="0 0 43 34" fill="none" xmlns="http://www.w3.org/2000/svg">
<g clip-path="url(#clip0_1405_3)">
<path d="M21.5001 2.125C20.9558 2.125 20.4183 2.21797 19.9077 2.39727L1.06162 9.12422C0.423339 9.35664 5.76057e-05 9.9543 5.76057e-05 10.625C5.76057e-05 11.2957 0.423339 11.8934 1.06162 12.1258L4.95178 13.5137C3.8499 15.227 3.22506 17.2523 3.22506 19.384V21.25C3.22506 23.1359 2.49943 25.0816 1.72678 26.6156C1.29006 27.4789 0.79287 28.3289 0.215058 29.1125C5.76079e-05 29.398 -0.0604111 29.7699 0.0605264 30.1086C0.181464 30.4473 0.463651 30.6996 0.813026 30.7859L5.11303 31.8484C5.39521 31.9215 5.69756 31.8684 5.94615 31.7156C6.19475 31.5629 6.36943 31.3105 6.42318 31.025C7.001 28.1828 6.71209 25.6328 6.28209 23.8066C6.06709 22.8637 5.77818 21.9008 5.37506 21.0176V19.384C5.37506 17.3785 6.06037 15.4859 7.24959 13.9719C8.11631 12.9426 9.23834 12.1125 10.5552 11.6012L21.1037 7.50391C21.6546 7.29141 22.2794 7.55703 22.4944 8.10156C22.7094 8.64609 22.4407 9.26367 21.8897 9.47617L11.3413 13.5734C10.5082 13.8988 9.77584 14.3969 9.17787 15.0078L19.901 18.8328C20.4116 19.0121 20.9491 19.1051 21.4933 19.1051C22.0376 19.1051 22.5751 19.0121 23.0857 18.8328L41.9385 12.1258C42.5768 11.9 43.0001 11.2957 43.0001 10.625C43.0001 9.9543 42.5768 9.35664 41.9385 9.12422L23.0924 2.39727C22.5818 2.21797 22.0443 2.125 21.5001 2.125ZM8.60006 27.0938C8.60006 29.4379 14.3782 31.875 21.5001 31.875C28.6219 31.875 34.4001 29.4379 34.4001 27.0938L33.3721 17.4383L23.818 20.8516C23.0722 21.1172 22.2862 21.25 21.5001 21.25C20.714 21.25 19.9212 21.1172 19.1821 20.8516L9.62803 17.4383L8.60006 27.0938Z" fill="white"/>
</g>
<defs>
<clipPath id="clip0_1405_3">
<rect width="43" height="34" fill="white"/>
</clipPath>
</defs>
</svg>

