<svg width="40" height="40" viewBox="0 0 40 40" fill="none" xmlns="http://www.w3.org/2000/svg">
<g clip-path="url(#clip0_294_151)">
<path d="M27.5 20C27.5 21.7344 27.4062 23.4062 27.2422 25H12.7578C12.5859 23.4062 12.5 21.7344 12.5 20C12.5 18.2656 12.5938 16.5938 12.7578 15H27.2422C27.4141 16.5938 27.5 18.2656 27.5 20ZM29.75 15H39.3672C39.7812 16.6016 40 18.2734 40 20C40 21.7266 39.7812 23.3984 39.3672 25H29.75C29.9141 23.3906 30 21.7188 30 20C30 18.2812 29.9141 16.6094 29.75 15ZM38.5469 12.5H29.4297C28.6484 7.50781 27.1016 3.32812 25.1094 0.65625C31.2266 2.27344 36.2031 6.71094 38.5391 12.5H38.5469ZM26.8984 12.5H13.1016C13.5781 9.65625 14.3125 7.14063 15.2109 5.10156C16.0312 3.25781 16.9453 1.92188 17.8281 1.07812C18.7031 0.25 19.4297 0 20 0C20.5703 0 21.2969 0.25 22.1719 1.07812C23.0547 1.92188 23.9688 3.25781 24.7891 5.10156C25.6953 7.13281 26.4219 9.64844 26.8984 12.5ZM10.5703 12.5H1.45312C3.79688 6.71094 8.76562 2.27344 14.8906 0.65625C12.8984 3.32812 11.3516 7.50781 10.5703 12.5ZM0.632812 15H10.25C10.0859 16.6094 10 18.2812 10 20C10 21.7188 10.0859 23.3906 10.25 25H0.632812C0.21875 23.3984 0 21.7266 0 20C0 18.2734 0.21875 16.6016 0.632812 15ZM15.2109 34.8906C14.3047 32.8594 13.5781 30.3438 13.1016 27.5H26.8984C26.4219 30.3438 25.6875 32.8594 24.7891 34.8906C23.9688 36.7344 23.0547 38.0703 22.1719 38.9141C21.2969 39.75 20.5703 40 20 40C19.4297 40 18.7031 39.75 17.8281 38.9219C16.9453 38.0781 16.0312 36.7422 15.2109 34.8984V34.8906ZM10.5703 27.5C11.3516 32.4922 12.8984 36.6719 14.8906 39.3438C8.76562 37.7266 3.79688 33.2891 1.45312 27.5H10.5703ZM38.5469 27.5C36.2031 33.2891 31.2344 37.7266 25.1172 39.3438C27.1094 36.6719 28.6484 32.4922 29.4375 27.5H38.5469Z" fill="white"/>
</g>
<defs>
<clipPath id="clip0_294_151">
<rect width="40" height="40" fill="white"/>
</clipPath>
</defs>
</svg>
