<svg width="15" height="17" viewBox="0 0 18 21" fill="none" xmlns="http://www.w3.org/2000/svg">
<g clip-path="url(#clip0_1401_2)">
<path d="M5.14286 0C5.85402 0 6.42857 0.586523 6.42857 1.3125V2.625H11.5714V1.3125C11.5714 0.586523 12.146 0 12.8571 0C13.5683 0 14.1429 0.586523 14.1429 1.3125V2.625H16.0714C17.1362 2.625 18 3.50684 18 4.59375V6.5625H0V4.59375C0 3.50684 0.863839 2.625 1.92857 2.625H3.85714V1.3125C3.85714 0.586523 4.4317 0 5.14286 0ZM0 7.875H18V19.0312C18 20.1182 17.1362 21 16.0714 21H1.92857C0.863839 21 0 20.1182 0 19.0312V7.875ZM2.57143 11.1562V12.4688C2.57143 12.8297 2.86071 13.125 3.21429 13.125H4.5C4.85357 13.125 5.14286 12.8297 5.14286 12.4688V11.1562C5.14286 10.7953 4.85357 10.5 4.5 10.5H3.21429C2.86071 10.5 2.57143 10.7953 2.57143 11.1562ZM7.71429 11.1562V12.4688C7.71429 12.8297 8.00357 13.125 8.35714 13.125H9.64286C9.99643 13.125 10.2857 12.8297 10.2857 12.4688V11.1562C10.2857 10.7953 9.99643 10.5 9.64286 10.5H8.35714C8.00357 10.5 7.71429 10.7953 7.71429 11.1562ZM13.5 10.5C13.1464 10.5 12.8571 10.7953 12.8571 11.1562V12.4688C12.8571 12.8297 13.1464 13.125 13.5 13.125H14.7857C15.1393 13.125 15.4286 12.8297 15.4286 12.4688V11.1562C15.4286 10.7953 15.1393 10.5 14.7857 10.5H13.5ZM2.57143 16.4062V17.7188C2.57143 18.0797 2.86071 18.375 3.21429 18.375H4.5C4.85357 18.375 5.14286 18.0797 5.14286 17.7188V16.4062C5.14286 16.0453 4.85357 15.75 4.5 15.75H3.21429C2.86071 15.75 2.57143 16.0453 2.57143 16.4062ZM8.35714 15.75C8.00357 15.75 7.71429 16.0453 7.71429 16.4062V17.7188C7.71429 18.0797 8.00357 18.375 8.35714 18.375H9.64286C9.99643 18.375 10.2857 18.0797 10.2857 17.7188V16.4062C10.2857 16.0453 9.99643 15.75 9.64286 15.75H8.35714ZM12.8571 16.4062V17.7188C12.8571 18.0797 13.1464 18.375 13.5 18.375H14.7857C15.1393 18.375 15.4286 18.0797 15.4286 17.7188V16.4062C15.4286 16.0453 15.1393 15.75 14.7857 15.75H13.5C13.1464 15.75 12.8571 16.0453 12.8571 16.4062Z" fill="white" fill-opacity="0.2"/>
</g>
<defs>
<clipPath id="clip0_1401_2">
<rect width="18" height="21" fill="white"/>
</clipPath>
</defs>
</svg>

