<svg width="15" height="16" viewBox="0 0 10 11" fill="none" xmlns="http://www.w3.org/2000/svg">
<g clip-path="url(#clip0_283_57)">
<rect x="2.14258" y="2.75" width="5.71429" height="4.8125" fill="white"/>
<path d="M1.42857 0.6875C0.640625 0.6875 0 1.3041 0 2.0625V8.9375C0 9.6959 0.640625 10.3125 1.42857 10.3125H8.57143C9.35938 10.3125 10 9.6959 10 8.9375V2.0625C10 1.3041 9.35938 0.6875 8.57143 0.6875H1.42857ZM7.52232 4.49023L4.66518 7.24023C4.45536 7.44219 4.11607 7.44219 3.90848 7.24023L2.47991 5.86523C2.27009 5.66328 2.27009 5.33672 2.47991 5.13691C2.68973 4.93711 3.02902 4.93496 3.23661 5.13691L4.28571 6.14668L6.76339 3.75977C6.97321 3.55781 7.3125 3.55781 7.52009 3.75977C7.72768 3.96172 7.72991 4.28828 7.52009 4.48809L7.52232 4.49023Z" fill="#00FF29"/>
</g>
<defs>
<clipPath id="clip0_283_57">
<rect width="10" height="11" fill="white"/>
</clipPath>
</defs>
</svg>
