<svg width="1em" height="1.35em" viewBox="0 0 17 23" fill="none" xmlns="http://www.w3.org/2000/svg">
<path d="M15.1669 6.76519C15.7203 6.20366 15.7203 5.29175 15.1669 4.73022C14.6135 4.1687 13.7148 4.1687 13.1615 4.73022L8.49974 9.46499L3.83359 4.73472C3.28021 4.17319 2.38151 4.17319 1.82812 4.73472C1.27474 5.29624 1.27474 6.20815 1.82812 6.76968L6.49427 11.5L1.83255 16.2347C1.27917 16.7962 1.27917 17.7082 1.83255 18.2697C2.38594 18.8312 3.28464 18.8312 3.83802 18.2697L8.49974 13.5349L13.1659 18.2652C13.7193 18.8267 14.618 18.8267 15.1714 18.2652C15.7247 17.7037 15.7247 16.7917 15.1714 16.2302L10.5052 11.5L15.1669 6.76519Z" fill="#FF4747"/>
</svg>
