<svg width="20" height="17" viewBox="0 0 24 21" fill="none" xmlns="http://www.w3.org/2000/svg">
<g clip-path="url(#clip0_1402_2)">
<path d="M11.9999 3.28125C9.28327 3.28125 7.04993 4.49531 5.33744 6.05801C3.73327 7.52637 2.62493 9.26953 2.05827 10.5C2.62493 11.7305 3.73327 13.4736 5.33327 14.942C7.04993 16.5047 9.28327 17.7188 11.9999 17.7188C14.7166 17.7188 16.9499 16.5047 18.6624 14.942C20.2666 13.4736 21.3749 11.7305 21.9416 10.5C21.3749 9.26953 20.2666 7.52637 18.6666 6.05801C16.9499 4.49531 14.7166 3.28125 11.9999 3.28125ZM3.97493 4.61836C5.93743 2.82187 8.63327 1.3125 11.9999 1.3125C15.3666 1.3125 18.0624 2.82187 20.0249 4.61836C21.9749 6.40254 23.2791 8.53125 23.8999 9.99551C24.0374 10.3195 24.0374 10.6805 23.8999 11.0045C23.2791 12.4687 21.9749 14.6016 20.0249 16.3816C18.0624 18.1781 15.3666 19.6875 11.9999 19.6875C8.63327 19.6875 5.93743 18.1781 3.97493 16.3816C2.02493 14.6016 0.720768 12.4687 0.104102 11.0045C-0.0333984 10.6805 -0.0333984 10.3195 0.104102 9.99551C0.720768 8.53125 2.02493 6.39844 3.97493 4.61836ZM11.9999 13.7812C13.8416 13.7812 15.3333 12.3129 15.3333 10.5C15.3333 8.68711 13.8416 7.21875 11.9999 7.21875C11.9708 7.21875 11.9458 7.21875 11.9166 7.21875C11.9708 7.42793 11.9999 7.64941 11.9999 7.875C11.9999 9.32285 10.8041 10.5 9.33327 10.5C9.1041 10.5 8.8791 10.4713 8.6666 10.418C8.6666 10.4467 8.6666 10.4713 8.6666 10.5C8.6666 12.3129 10.1583 13.7812 11.9999 13.7812ZM11.9999 5.25C13.4144 5.25 14.771 5.80312 15.7712 6.78769C16.7714 7.77226 17.3333 9.10761 17.3333 10.5C17.3333 11.8924 16.7714 13.2277 15.7712 14.2123C14.771 15.1969 13.4144 15.75 11.9999 15.75C10.5854 15.75 9.22889 15.1969 8.2287 14.2123C7.2285 13.2277 6.6666 11.8924 6.6666 10.5C6.6666 9.10761 7.2285 7.77226 8.2287 6.78769C9.22889 5.80312 10.5854 5.25 11.9999 5.25Z" fill="white" fill-opacity="0.2"/>
</g>
<defs>
<clipPath id="clip0_1402_2">
<rect width="24" height="21" fill="white"/>
</clipPath>
</defs>
</svg>

