<svg width="21" height="21" viewBox="0 0 21 21" fill="none" xmlns="http://www.w3.org/2000/svg">
<path d="M17.5292 18.2649H3.44722C1.60985 18.2649 0.115234 16.7703 0.115234 14.9329V6.04293C0.115234 4.20578 1.61008 2.71094 3.44722 2.71094H17.5292C19.3663 2.71094 20.8609 4.20578 20.8609 6.04293V14.9329C20.8609 16.7703 19.3663 18.2649 17.5292 18.2649ZM3.44722 3.68529C2.14716 3.68529 1.08959 4.74286 1.08959 6.04293V14.9329C1.08959 16.233 2.14716 17.2908 3.44722 17.2908H17.5292C18.8292 17.2908 19.8868 16.233 19.8868 14.9329V6.04293C19.8868 4.74286 18.8292 3.68529 17.5292 3.68529H3.44722Z" fill="white"/>
<path d="M2.66106 6.0889C5.15147 8.51569 7.64187 10.9422 10.1323 13.369C10.5965 13.8213 11.309 13.1104 10.8441 12.6572C8.35368 10.2307 5.86327 7.80388 3.37287 5.37732C2.90862 4.92484 2.19613 5.63595 2.66106 6.0889Z" fill="white"/>
<path d="M10.844 13.369C13.3344 10.9424 15.8248 8.51566 18.3152 6.0891C18.7799 5.63615 18.0679 4.92481 17.6034 5.37729C15.113 7.80385 12.6226 10.2306 10.1322 12.6572C9.66748 13.1101 10.3795 13.8215 10.844 13.369Z" fill="white"/>
<path d="M18.2877 15.0874C16.6305 13.5158 14.9732 11.9444 13.3161 10.3728C12.8461 9.92724 12.1331 10.6377 12.6043 11.0846C14.2614 12.6562 15.9187 14.2276 17.5758 15.7992C18.0459 16.2448 18.7588 15.5341 18.2877 15.0874Z" fill="white"/>
<path d="M3.44539 15.7983C5.10251 14.2267 6.75986 12.6553 8.41698 11.0837C8.88791 10.637 8.17541 9.9261 7.70517 10.3719C6.04805 11.9435 4.3907 13.5149 2.73358 15.0865C2.26265 15.5332 2.97515 16.2443 3.44539 15.7983Z" fill="white"/>
</svg>
