<svg width="19" height="19" viewBox="0 0 19 19" fill="none" xmlns="http://www.w3.org/2000/svg">
<path d="M11.3926 1.29142C10.9658 1.48068 10.6875 1.90744 10.6875 2.37502V4.75002H6.53125C2.92422 4.75002 0 7.67423 0 11.2813C0 15.4858 3.02441 17.3635 3.71836 17.742C3.81113 17.794 3.91504 17.8125 4.01895 17.8125C4.42344 17.8125 4.75 17.4822 4.75 17.0815C4.75 16.8031 4.59043 16.5471 4.38633 16.3578C4.0375 16.0276 3.5625 15.3781 3.5625 14.25C3.5625 12.2832 5.1582 10.6875 7.125 10.6875H10.6875V13.0625C10.6875 13.5301 10.9621 13.9569 11.3926 14.1461C11.823 14.3354 12.3203 14.2574 12.6691 13.9457L18.6066 8.60197C18.8553 8.3756 19 8.05646 19 7.71877C19 7.38107 18.859 7.06193 18.6066 6.83556L12.6691 1.49181C12.3203 1.17638 11.8193 1.09845 11.3926 1.29142Z" fill="white"/>
</svg>

