<svg width="19" height="19" viewBox="0 0 19 19" fill="none" xmlns="http://www.w3.org/2000/svg">
<g clip-path="url(#clip0_283_51)">
<path d="M10.6875 4.0561V13.0625C10.6875 13.7194 10.1568 14.25 9.5 14.25C8.84316 14.25 8.3125 13.7194 8.3125 13.0625V4.0561L5.58867 6.77993C5.1248 7.2438 4.37148 7.2438 3.90762 6.77993C3.44375 6.31606 3.44375 5.56274 3.90762 5.09888L8.65762 0.348877C9.12148 -0.11499 9.8748 -0.11499 10.3387 0.348877L15.0887 5.09888C15.5525 5.56274 15.5525 6.31606 15.0887 6.77993C14.6248 7.2438 13.8715 7.2438 13.4076 6.77993L10.6875 4.0561ZM2.375 13.0625H7.125C7.125 14.3725 8.19004 15.4375 9.5 15.4375C10.81 15.4375 11.875 14.3725 11.875 13.0625H16.625C17.935 13.0625 19 14.1276 19 15.4375V16.625C19 17.935 17.935 19 16.625 19H2.375C1.06504 19 0 17.935 0 16.625V15.4375C0 14.1276 1.06504 13.0625 2.375 13.0625ZM16.0312 16.9219C16.2675 16.9219 16.494 16.8281 16.661 16.6611C16.828 16.494 16.9219 16.2675 16.9219 16.0313C16.9219 15.7951 16.828 15.5686 16.661 15.4015C16.494 15.2345 16.2675 15.1407 16.0312 15.1407C15.795 15.1407 15.5685 15.2345 15.4015 15.4015C15.2345 15.5686 15.1406 15.7951 15.1406 16.0313C15.1406 16.2675 15.2345 16.494 15.4015 16.6611C15.5685 16.8281 15.795 16.9219 16.0312 16.9219Z" fill="white"/>
</g>
<defs>
<clipPath id="clip0_283_51">
<rect width="19" height="19" fill="white"/>
</clipPath>
</defs>
</svg>
