<svg width="47" height="47" viewBox="0 0 47 47" fill="none" xmlns="http://www.w3.org/2000/svg">
<g clip-path="url(#clip0_279_16)">
<path d="M26.4375 10.0331V32.3122C26.4375 33.937 25.1248 35.2497 23.5 35.2497C21.8752 35.2497 20.5625 33.937 20.5625 32.3122V10.0331L13.8246 16.7709C12.6771 17.9184 10.8137 17.9184 9.66621 16.7709C8.51875 15.6235 8.51875 13.76 9.66621 12.6125L21.4162 0.862549C22.5637 -0.284912 24.4271 -0.284912 25.5746 0.862549L37.3246 12.6125C38.4721 13.76 38.4721 15.6235 37.3246 16.7709C36.1771 17.9184 34.3137 17.9184 33.1662 16.7709L26.4375 10.0331ZM5.875 32.3122H17.625C17.625 35.5526 20.2596 38.1872 23.5 38.1872C26.7404 38.1872 29.375 35.5526 29.375 32.3122H41.125C44.3654 32.3122 47 34.9467 47 38.1872V41.1247C47 44.3651 44.3654 46.9997 41.125 46.9997H5.875C2.63457 46.9997 0 44.3651 0 41.1247V38.1872C0 34.9467 2.63457 32.3122 5.875 32.3122ZM39.6562 41.859C40.2406 41.859 40.8009 41.6269 41.2141 41.2138C41.6273 40.8006 41.8594 40.2402 41.8594 39.6559C41.8594 39.0716 41.6273 38.5112 41.2141 38.0981C40.8009 37.6849 40.2406 37.4528 39.6562 37.4528C39.0719 37.4528 38.5116 37.6849 38.0984 38.0981C37.6852 38.5112 37.4531 39.0716 37.4531 39.6559C37.4531 40.2402 37.6852 40.8006 38.0984 41.2138C38.5116 41.6269 39.0719 41.859 39.6562 41.859Z" fill="white"/>
</g>
<defs>
<clipPath id="clip0_279_16">
<rect width="47" height="47" fill="white"/>
</clipPath>
</defs>
</svg>
