<svg viewBox="0 0 33 41" fill="none" xmlns="http://www.w3.org/2000/svg">
<g clip-path="url(#clip0_229_307)">
<path d="M10.7111 34.9218C8.83443 33.2287 8.28659 29.6711 9.06846 27.0938C10.4242 28.7187 12.3027 29.2335 14.2484 29.5241C17.2521 29.9724 20.2021 29.8047 22.9925 28.4497C23.3117 28.2946 23.6067 28.0883 23.9555 27.8793C24.2173 28.6291 24.2854 29.3859 24.194 30.1563C23.9716 32.0323 23.0256 33.4815 21.5211 34.5801C20.9194 35.0195 20.2828 35.4123 19.6614 35.8266C17.7525 37.1001 17.236 38.5932 17.9533 40.7651C17.9703 40.8183 17.9856 40.8712 18.0242 41.0003C17.0495 40.5696 16.3375 39.9428 15.7951 39.1186C15.2221 38.2489 14.9496 37.2866 14.9352 36.2454C14.928 35.7388 14.928 35.2276 14.859 34.7281C14.6904 33.5102 14.1112 32.965 13.02 32.9336C11.9001 32.9013 11.0142 33.5847 10.7793 34.6608C10.7613 34.7433 10.7353 34.8249 10.7093 34.9209L10.7111 34.9218Z" fill="white"/>
<path d="M10.7111 34.9218C8.83443 33.2287 8.28659 29.6711 9.06846 27.0938C10.4242 28.7187 12.3027 29.2335 14.2484 29.5241C17.2521 29.9724 20.2021 29.8047 22.9925 28.4497C23.3117 28.2946 23.6067 28.0883 23.9555 27.8793C24.2173 28.6291 24.2854 29.3859 24.194 30.1563C23.9716 32.0323 23.0256 33.4815 21.5211 34.5801C20.9194 35.0195 20.2828 35.4123 19.6614 35.8266C17.7525 37.1001 17.236 38.5932 17.9533 40.7651C17.9703 40.8183 17.9856 40.8712 18.0242 41.0003C17.0495 40.5696 16.3375 39.9428 15.7951 39.1186C15.2221 38.2489 14.9496 37.2866 14.9352 36.2454C14.928 35.7388 14.928 35.2276 14.859 34.7281C14.6904 33.5102 14.1112 32.965 13.02 32.9336C11.9001 32.9013 11.0142 33.5847 10.7793 34.6608C10.7613 34.7433 10.7353 34.8249 10.7093 34.9209L10.7111 34.9218Z" fill="url(#paint0_linear_229_307)"/>
<path d="M0 26.664C0 26.664 5.55716 23.9922 11.1299 23.9922L15.3315 11.1583C15.4888 10.5377 15.948 10.1158 16.4666 10.1158C16.9851 10.1158 17.4444 10.5377 17.6017 11.1583L21.8033 23.9922C28.4033 23.9922 32.9331 26.664 32.9331 26.664C32.9331 26.664 23.4939 1.28454 23.4754 1.23362C23.2045 0.483264 22.7471 0 22.1305 0H10.8036C10.187 0 9.74808 0.483264 9.45873 1.23362C9.43831 1.28358 0 26.664 0 26.664Z" fill="white"/>
</g>
<defs>
<linearGradient id="paint0_linear_229_307" x1="8.72367" y1="41.0003" x2="26.7571" y2="32.3674" gradientUnits="userSpaceOnUse">
<stop stop-color="#D83333"/>
<stop offset="1" stop-color="#F041FF"/>
</linearGradient>
<clipPath id="clip0_229_307">
<rect width="33" height="41" fill="white"/>
</clipPath>
</defs>
</svg>
