<svg viewBox="0 0 71 71" fill="none" xmlns="http://www.w3.org/2000/svg">
<g clip-path="url(#clip0_229_199)">
<path fill-rule="evenodd" clip-rule="evenodd" d="M64.8984 40.6053L57.2659 35.5L64.8984 30.3947V40.6053ZM38.5508 62.247V48.0182L51.779 39.172L62.4556 46.312L38.5508 62.247ZM35.5 42.7176L24.7102 35.5L35.5 28.2824L46.292 35.5L35.5 42.7176ZM32.4492 62.247L8.54441 46.312L19.2232 39.172L32.4492 48.0182V62.247ZM6.10156 30.3947L13.7363 35.5L6.10156 40.6053V30.3947ZM32.4492 8.75297V22.9818L19.2232 31.8302L8.54441 24.688L32.4492 8.75297ZM38.5508 8.75297L62.4556 24.688L51.779 31.8302L38.5508 22.9818V8.75297ZM70.9734 24.2864C70.9667 24.2398 70.9556 24.1977 70.949 24.1533C70.9334 24.0668 70.9179 23.9802 70.8957 23.8982C70.8824 23.8471 70.8624 23.7983 70.8469 23.7495C70.8225 23.6741 70.7981 23.6008 70.7692 23.5276C70.7493 23.4766 70.7249 23.4256 70.7005 23.379C70.6694 23.308 70.6361 23.2414 70.5962 23.1771C70.5696 23.1283 70.5385 23.0817 70.5097 23.0351C70.4697 22.9707 70.4276 22.9086 70.381 22.8487C70.3477 22.8043 70.3122 22.7599 70.2767 22.7178C70.2279 22.6601 70.1768 22.6046 70.1236 22.5514C70.0837 22.5114 70.0459 22.4693 70.0038 22.4338C69.9461 22.3828 69.8884 22.3339 69.8307 22.2873C69.7841 22.2518 69.7397 22.2163 69.6932 22.1831C69.6754 22.172 69.6599 22.1564 69.6421 22.1453L37.1929 0.512531C36.1678 -0.170844 34.8344 -0.170844 33.8071 0.512531L1.36009 22.1453C1.34234 22.1564 1.32681 22.172 1.30906 22.1831C1.26025 22.2163 1.21587 22.2518 1.1715 22.2873C1.11159 22.3339 1.05391 22.3828 0.998437 22.4338C0.956281 22.4693 0.916344 22.5114 0.876406 22.5514C0.823156 22.6046 0.772125 22.6601 0.725531 22.7178C0.687812 22.7599 0.652313 22.8043 0.619031 22.8487C0.574656 22.9086 0.5325 22.9707 0.492563 23.0351C0.4615 23.0817 0.432656 23.1283 0.403812 23.1771C0.366094 23.2414 0.332813 23.308 0.299531 23.379C0.277344 23.4256 0.252937 23.4766 0.232969 23.5276C0.201906 23.6008 0.1775 23.6741 0.153094 23.7495C0.137562 23.7983 0.119813 23.8471 0.1065 23.8982C0.0843125 23.9802 0.0687813 24.0668 0.05325 24.1533C0.044375 24.1977 0.0332813 24.2398 0.0288438 24.2864C0.0110937 24.4151 0 24.5482 0 24.6836V46.3164C0 46.4495 0.0110937 46.5827 0.0288438 46.7158C0.0332813 46.7579 0.044375 46.8023 0.05325 46.8467C0.0687813 46.9332 0.0843125 47.0175 0.1065 47.1018C0.119813 47.1529 0.137562 47.2017 0.153094 47.2505C0.1775 47.3237 0.201906 47.3992 0.232969 47.4746C0.252937 47.5234 0.277344 47.5722 0.299531 47.621C0.332813 47.6898 0.366094 47.7564 0.403812 47.8252C0.432656 47.8718 0.4615 47.9183 0.492563 47.9649C0.5325 48.0293 0.574656 48.0892 0.619031 48.1491C0.652313 48.1957 0.687812 48.2401 0.725531 48.2822C0.772125 48.3377 0.823156 48.3954 0.876406 48.4464C0.916344 48.4886 0.956281 48.5285 0.998437 48.5662C1.05391 48.6172 1.11159 48.6661 1.1715 48.7127C1.21587 48.7482 1.26025 48.7837 1.30906 48.8169C1.32681 48.828 1.34234 48.8436 1.36009 48.8547L33.8071 70.4875C34.3196 70.8292 34.9098 71 35.5 71C36.0902 71 36.6804 70.8292 37.1929 70.4875L69.6421 48.8547C69.6599 48.8436 69.6754 48.828 69.6932 48.8169C69.7397 48.7837 69.7841 48.7482 69.8307 48.7127C69.8884 48.6661 69.9461 48.6172 70.0038 48.5662C70.0459 48.5285 70.0837 48.4886 70.1236 48.4464C70.1768 48.3954 70.2279 48.3377 70.2767 48.2822C70.3122 48.2401 70.3477 48.1957 70.381 48.1491C70.4276 48.0892 70.4697 48.0293 70.5097 47.9649C70.5385 47.9183 70.5696 47.8718 70.5962 47.8252C70.6361 47.7564 70.6694 47.6898 70.7005 47.621C70.7249 47.5722 70.7493 47.5234 70.7692 47.4746C70.7981 47.3992 70.8225 47.3237 70.8469 47.2505C70.8624 47.2017 70.8824 47.1529 70.8957 47.1018C70.9179 47.0175 70.9334 46.9332 70.949 46.8467C70.9556 46.8023 70.9667 46.7579 70.9734 46.7158C70.9911 46.5827 71 46.4495 71 46.3164V24.6836C71 24.5482 70.9911 24.4151 70.9734 24.2864Z" fill="white"/>
</g>
<defs>
<clipPath id="clip0_229_199">
<rect width="71" height="71" fill="white"/>
</clipPath>
</defs>
</svg>
