<svg  viewBox="0 0 44 66" fill="none" xmlns="http://www.w3.org/2000/svg">
<g clip-path="url(#clip0_229_324)">
<path d="M11.0022 66C17.073 66 22 61.072 22 55V44H11.0022C4.93141 44 0.00439453 48.928 0.00439453 55C0.00439453 61.072 4.93141 66 11.0022 66Z" fill="#0ACF83"/>
<path d="M0.00439453 33C0.00439453 26.928 4.93141 22 11.0022 22H22V44H11.0022C4.93141 44 0.00439453 39.072 0.00439453 33Z" fill="#A259FF"/>
<path d="M0.00488281 11C0.00488281 4.928 4.9319 0 11.0027 0H22.0005V22H11.0027C4.9319 22 0.00488281 17.072 0.00488281 11Z" fill="#F24E1E"/>
<path d="M22 0H32.9978C39.0686 0 43.9956 4.928 43.9956 11C43.9956 17.072 39.0686 22 32.9978 22H22V0Z" fill="#FF7262"/>
<path d="M43.9956 33C43.9956 39.072 39.0686 44 32.9978 44C26.927 44 22 39.072 22 33C22 26.928 26.927 22 32.9978 22C39.0686 22 43.9956 26.928 43.9956 33Z" fill="#1ABCFE"/>
</g>
<defs>
<clipPath id="clip0_229_324">
<rect width="44" height="66" fill="white"/>
</clipPath>
</defs>
</svg>
