<svg  viewBox="0 0 45 44" fill="none" xmlns="http://www.w3.org/2000/svg">
<g clip-path="url(#clip0_229_38)">
<path fill-rule="evenodd" clip-rule="evenodd" d="M22.433 0C10.0281 0 0 10.0833 0 22.5578C0 32.5293 6.42536 40.97 15.339 43.9574C16.4535 44.182 16.8617 43.472 16.8617 42.8748C16.8617 42.3518 16.8249 40.5593 16.8249 38.6916C10.5846 40.0363 9.28515 36.0025 9.28515 36.0025C8.2823 33.3882 6.79638 32.7163 6.79638 32.7163C4.75393 31.3344 6.94515 31.3344 6.94515 31.3344C9.21076 31.4838 10.3996 33.6499 10.3996 33.6499C12.4048 37.0856 15.6361 36.1148 16.9361 35.5172C17.1216 34.0606 17.7162 33.0522 18.3476 32.4922C13.3705 31.9692 8.13398 30.0272 8.13398 21.3625C8.13398 18.8975 9.0248 16.8809 10.4363 15.3125C10.2136 14.7524 9.43347 12.4364 10.6595 9.33671C10.6595 9.33671 12.5536 8.73904 16.8245 11.6522C18.653 11.1584 20.5387 10.9072 22.433 10.9051C24.3271 10.9051 26.258 11.1668 28.041 11.6522C32.3123 8.73904 34.2064 9.33671 34.2064 9.33671C35.4324 12.4364 34.6518 14.7524 34.4291 15.3125C35.8779 16.8809 36.7319 18.8975 36.7319 21.3625C36.7319 30.0272 31.4954 31.9316 26.4811 32.4922C27.2985 33.2017 28.0038 34.546 28.0038 36.6749C28.0038 39.6999 27.967 42.1277 27.967 42.8743C27.967 43.472 28.3757 44.182 29.4897 43.9578C38.4034 40.9695 44.8287 32.5293 44.8287 22.5578C44.8655 10.0833 34.8006 0 22.433 0Z" fill="white"/>
</g>
<defs>
<clipPath id="clip0_229_38">
<rect width="45" height="44" fill="white"/>
</clipPath>
</defs>
</svg>
