<svg viewBox="0 0 46 46" fill="none" xmlns="http://www.w3.org/2000/svg">
<g clip-path="url(#clip0_229_317)">
<path d="M16.7066 35.5636C16.7066 35.5636 14.9385 36.6389 17.9357 36.9465C21.5438 37.4065 23.4658 37.3303 27.4591 36.5627C28.2617 37.0542 29.1105 37.4658 29.9934 37.7917C21.0091 41.6327 9.63988 37.5617 16.7066 35.5636ZM15.5566 30.5712C15.5566 30.5712 13.6361 32.0302 16.6319 32.3393C20.5491 32.7231 23.621 32.7993 28.9225 31.7255C29.4381 32.2484 30.0694 32.6428 30.7654 32.8769C19.9353 36.1027 7.79988 33.1831 15.5566 30.5712ZM36.7554 39.3255C36.7554 39.3255 38.0607 40.4008 35.2964 41.246C30.1501 42.7842 13.7138 43.2442 9.10513 41.246C7.49226 40.556 10.5642 39.557 11.5489 39.4032C12.5479 39.1732 13.087 39.1732 13.087 39.1732C11.3189 37.9441 1.33544 41.7075 8.01838 42.7813C26.3753 45.777 41.5064 41.476 36.7439 39.3255H36.7554ZM17.5375 25.3473C17.5375 25.3473 9.16551 27.3454 14.5418 28.0354C16.8461 28.343 21.3771 28.2654 25.6019 27.9592C29.0576 27.6516 32.5163 27.0392 32.5163 27.0392C32.5163 27.0392 31.2872 27.5769 30.4419 28.1145C21.9176 30.3426 5.55594 29.3435 10.2422 27.0392C14.2356 25.1187 17.5389 25.3502 17.5389 25.3502L17.5375 25.3473ZM32.5163 33.7193C41.1183 29.263 37.1249 24.9649 34.3591 25.5011C33.6691 25.6549 33.3601 25.8087 33.3601 25.8087C33.3601 25.8087 33.5901 25.3487 34.1277 25.1949C39.5816 23.2744 43.8826 30.955 32.3596 33.9493C32.3596 33.9493 32.4358 33.8731 32.5134 33.7193H32.5163ZM18.3856 45.8547C26.68 46.3923 39.3544 45.547 39.6606 41.6284C39.6606 41.6284 39.0468 43.1665 32.8253 44.3165C25.7586 45.6218 17.0028 45.4665 11.8565 44.6242C11.8565 44.6242 12.9318 45.5456 18.3856 45.8547Z" fill="#4E7896"/>
<path d="M27.3066 0.000976562C27.3066 0.000976562 32.0691 4.8396 22.7756 12.1364C15.3251 18.0502 21.0866 21.4298 22.7756 25.2708C18.397 21.3536 15.2489 17.8964 17.3994 14.6721C20.5475 9.90823 29.2271 7.61829 27.3066 0.000976562ZM24.8629 22.045C27.091 24.5794 24.2491 26.8837 24.2491 26.8837C24.2491 26.8837 29.9329 23.9655 27.321 20.3545C24.9405 16.8988 23.0948 15.2083 33.0811 9.44823C33.0811 9.44823 17.3361 13.3654 24.8629 22.045Z" fill="#F58219"/>
</g>
<defs>
<clipPath id="clip0_229_317">
<rect width="46" height="46" fill="white"/>
</clipPath>
</defs>
</svg>
