<svg viewBox="0 0 16 17" fill="none" xmlns="http://www.w3.org/2000/svg">
<g clip-path="url(#clip0_229_257)">
<path d="M16 0.0390625H0V16.0391H16V0.0390625Z" fill="#F7DF1E"/>
<path d="M10.748 12.5392C11.0703 13.0654 11.4896 13.4522 12.2312 13.4522C12.8542 13.4522 13.2521 13.1408 13.2521 12.7106C13.2521 12.195 12.8432 12.0124 12.1575 11.7125L11.7817 11.5512C10.6967 11.089 9.97594 10.51 9.97594 9.28584C9.97594 8.15822 10.8351 7.2998 12.1778 7.2998C13.1338 7.2998 13.821 7.6325 14.3163 8.50361L13.1455 9.25536C12.8877 8.79314 12.6096 8.61104 12.1778 8.61104C11.7375 8.61104 11.4584 8.89041 11.4584 9.25536C11.4584 9.70641 11.7377 9.88901 12.3828 10.1684L12.7587 10.3294C14.0361 10.8772 14.7574 11.4357 14.7574 12.6913C14.7574 14.0449 13.694 14.7865 12.266 14.7865C10.8697 14.7865 9.96756 14.1211 9.52616 13.249L10.748 12.5392ZM5.43676 12.6695C5.67295 13.0885 5.88781 13.4428 6.40438 13.4428C6.89835 13.4428 7.20997 13.2495 7.20997 12.498V7.38565H8.71346V12.5183C8.71346 14.0752 7.8007 14.7837 6.46838 14.7837C5.26457 14.7837 4.56743 14.1608 4.21289 13.4104L5.43676 12.6695Z" fill="black"/>
</g>
<defs>
<clipPath id="clip0_229_257">
<rect width="16" height="16" fill="white" transform="translate(0 0.0390625)"/>
</clipPath>
</defs>
</svg>
