<svg viewBox="0 0 120 60" fill="none" xmlns="http://www.w3.org/2000/svg">
<path fill-rule="evenodd" clip-rule="evenodd" d="M18.0005 45.0432H20.8121V33.9046L25.2032 43.616C25.7006 44.7834 26.4151 45.2158 27.7987 45.2158C29.1822 45.2158 29.8541 44.7829 30.368 43.616L34.7372 33.9046V45.0432H37.5707V33.9046C37.5707 32.8235 37.1378 32.3034 36.2294 32.0222C34.0881 31.3736 32.6605 31.9359 32.0118 33.3844L27.708 42.9878L23.555 33.3844C22.9277 31.9359 21.4782 31.3736 19.3156 32.0222C18.4285 32.3034 17.9961 32.8231 17.9961 33.9046L17.9956 45.0432H18.0005ZM39.9112 35.9809H42.7447V42.1021C42.7234 42.4477 42.8528 43.2268 44.393 43.2476C45.1928 43.2694 50.4924 43.2476 50.535 43.2476V35.9372H53.3685V45.9517C53.3685 48.4172 50.3145 48.9573 48.8912 48.9796H39.981V47.0987H48.9139C50.7309 46.9038 50.5147 45.9958 50.5147 45.6928V44.9569H44.5229C41.7325 44.9351 39.9369 43.7023 39.9161 42.2965V35.9799L39.9112 35.9809ZM100.689 28.8862C98.9595 28.8426 97.6176 29.0161 96.493 29.4922C96.1691 29.6231 95.6495 29.6231 95.6068 30.0332C95.7799 30.2053 95.8007 30.4869 95.9524 30.7254C96.2118 31.1583 96.6665 31.7415 97.0771 32.044C97.5318 32.3906 97.9861 32.7363 98.4611 33.0393C99.3046 33.558 100.256 33.861 101.078 34.3801C101.554 34.6831 102.03 35.0724 102.506 35.3972C102.748 35.5703 102.895 35.8519 103.198 35.9595V35.8941C103.047 35.7002 103.003 35.419 102.852 35.2018C102.636 34.9861 102.419 34.7907 102.203 34.575C101.576 33.7315 100.797 32.9956 99.9533 32.3906C99.261 31.9146 97.7476 31.266 97.4664 30.4661L97.4237 30.4225C97.8988 30.3788 98.4611 30.2058 98.9159 30.0758C99.6517 29.8819 100.322 29.9246 101.078 29.7302C101.425 29.6429 101.77 29.5353 102.117 29.4272V29.2333C101.728 28.844 101.446 28.3248 101.036 27.9574C99.9329 27.0058 98.721 26.0755 97.4664 25.297C96.7959 24.8645 95.9306 24.5829 95.217 24.2159C94.9567 24.086 94.5248 24.021 94.3735 23.8048C93.9833 23.3297 93.7676 22.702 93.4864 22.1391C92.8596 20.9495 92.2536 19.6304 91.7131 18.3758C91.3238 17.5323 91.0853 16.6888 90.6102 15.9103C88.3822 12.2333 85.9593 10.0058 82.2392 7.82088C81.4393 7.36665 80.4877 7.17129 79.476 6.93375L77.8539 6.84649C77.5073 6.69524 77.1617 6.28415 76.8587 6.08928C75.6259 5.31073 72.4463 3.62372 71.5373 5.85174C70.9532 7.25758 72.4026 8.6416 72.8947 9.35568C73.2631 9.85305 73.7382 10.4154 73.9985 10.9777C74.144 11.3452 74.1924 11.7349 74.3442 12.1242C74.6898 13.0758 75.0146 14.136 75.4688 15.0232C75.7112 15.4774 75.9657 15.9539 76.2687 16.3645C76.4418 16.6021 76.7448 16.7107 76.8092 17.0999C76.5063 17.5328 76.4854 18.181 76.3123 18.7225C75.5333 21.1667 75.8363 24.1946 76.9392 25.9892C77.2858 26.5297 78.1026 27.7198 79.2108 27.2651C80.1842 26.8759 79.9671 25.6431 80.2482 24.5616C80.3137 24.3022 80.27 24.1291 80.3995 23.9556V23.9992L81.2866 25.7943C81.957 26.854 83.1254 27.9574 84.0983 28.6933C84.617 29.0825 85.0281 29.7535 85.6767 29.991V29.9256H85.634C85.5041 29.7317 85.3092 29.6444 85.1362 29.4931C84.7469 29.1039 84.3145 28.6278 84.0115 28.1954C83.1035 26.9844 82.3037 25.6431 81.5896 24.2591C81.243 23.5886 80.94 22.8532 80.6598 22.1828C80.5289 21.9229 80.5289 21.5332 80.3132 21.4042C79.9884 21.8793 79.5133 22.2914 79.2743 22.875C78.8632 23.8048 78.8206 24.9513 78.6693 26.1409C78.5821 26.1628 78.6208 26.1409 78.5821 26.1846C77.8908 26.012 77.6523 25.2974 77.3929 24.6924C76.7443 23.1567 76.6357 20.6911 77.198 18.9173C77.3493 18.4631 77.9989 17.0354 77.7395 16.603C77.6086 16.1919 77.1772 15.9544 76.9387 15.6296C76.6575 15.2185 76.3555 14.6998 76.1606 14.2456C75.6419 13.0336 75.3825 11.6933 74.8197 10.4818C74.5594 9.91947 74.1057 9.33532 73.7377 8.81661C73.3266 8.23246 72.8734 7.82137 72.5486 7.1296C72.4405 6.89206 72.2892 6.5023 72.4623 6.24246C72.5049 6.0694 72.5922 6.00492 72.7643 5.9613C73.0455 5.72376 73.8463 6.02625 74.1275 6.1552C74.9273 6.48 75.5978 6.7825 76.2682 7.23625C76.5712 7.45246 76.896 7.86354 77.2853 7.97213H77.74C78.4323 8.12338 79.2103 8.01576 79.8585 8.20967C81.005 8.5781 82.0428 9.11814 82.9736 9.70277C85.8066 11.4979 88.1432 14.0502 89.7216 17.1004C89.981 17.5978 90.0891 18.052 90.3276 18.5712C90.7823 19.6314 91.3447 20.7125 91.7979 21.7513C92.2527 22.7679 92.6851 23.8068 93.3337 24.6503C93.6585 25.1045 94.9557 25.342 95.5394 25.5801C95.9723 25.774 96.6423 25.9485 97.0325 26.186C97.7674 26.6403 98.5028 27.1595 99.1946 27.6568C99.5402 27.9157 100.622 28.4567 100.687 28.8882L100.689 28.8862ZM78.632 10.0906C78.3332 10.0879 78.0353 10.1243 77.7458 10.1987V10.2423H77.7885C77.9615 10.5885 78.2645 10.8265 78.4807 11.1295L78.9786 12.1678L79.0213 12.1242C79.3242 11.908 79.476 11.5619 79.476 11.0432C79.3461 10.8919 79.3247 10.7402 79.2166 10.5889C79.0867 10.3727 78.8055 10.2641 78.632 10.0916V10.0906Z" fill="#00678C"/>
<path fill-rule="evenodd" clip-rule="evenodd" d="M55.5278 45.0435H63.6604C64.612 45.0435 65.5209 44.8496 66.2559 44.5029C67.4886 43.9406 68.0728 43.1844 68.0728 42.1891V40.1128C68.0728 39.313 67.4024 38.5553 66.062 38.0366C65.3697 37.7772 64.5044 37.6255 63.6609 37.6255H60.2432C59.0967 37.6255 58.5562 37.2789 58.4045 36.5226C58.3831 36.4363 58.3831 36.3495 58.3831 36.2633V34.9869C58.3831 34.9214 58.3831 34.8356 58.4045 34.7493C58.5557 34.1652 58.8587 34.0134 59.8588 33.9058H68.1857V32.0234H60.2694C59.1229 32.0234 58.5174 32.0889 57.9764 32.2619C56.3107 32.7807 55.5753 33.6028 55.5753 35.0513V36.6962C55.5753 37.9711 57.003 39.0536 59.4254 39.313C59.6848 39.3348 59.9659 39.3348 60.2471 39.3348H63.1674C63.2755 39.3348 63.3831 39.3348 63.4694 39.3566C64.3565 39.4429 64.7458 39.5941 65.0051 39.918C65.1782 40.091 65.2218 40.2428 65.2218 40.4376V42.081C65.2218 42.2749 65.0919 42.5357 64.8326 42.7515C64.5732 42.9672 64.1612 43.1189 63.6206 43.1407C63.5125 43.1407 63.4485 43.1625 63.3395 43.1625H55.5278V45.0435ZM85.6783 41.778C85.6783 43.7026 87.1326 44.7836 90.0267 45.0008C90.3079 45.0226 90.5672 45.0435 90.8484 45.0435H98.2024V43.1625H90.7839C89.1391 43.1625 88.5123 42.7515 88.5123 41.7567V32.0234H85.673V41.7785L85.6783 41.778ZM69.8674 41.8638V35.1594C69.8674 33.4506 71.0784 32.4117 73.4368 32.0879C73.6962 32.0661 73.9555 32.0443 74.193 32.0443H79.5566C79.8377 32.0443 80.0763 32.0661 80.3574 32.0879C82.7149 32.4117 83.904 33.4501 83.904 35.1594V41.8638C83.904 43.2479 83.4071 43.9838 82.2383 44.4816L85.0064 46.9898H81.741L79.4916 44.9572L77.22 45.0871H74.1921C73.6373 45.0843 73.085 45.0119 72.5482 44.8714C70.7546 44.373 69.8674 43.4219 69.8674 41.8638ZM72.9166 41.7136C72.9166 41.7999 72.9651 41.8857 72.9821 41.9947C73.1333 42.7728 73.8683 43.2057 74.9929 43.2057H77.5457L75.2101 41.0858H78.4755L80.53 42.9463C80.9202 42.7296 81.1578 42.4267 81.2441 42.0374C81.2659 41.9511 81.2659 41.8435 81.2659 41.7562V35.332C81.2659 35.2457 81.2659 35.1599 81.2441 35.0727C81.0928 34.3377 80.3579 33.9271 79.2546 33.9271H74.9934C73.7388 33.9271 72.9171 34.4677 72.9171 35.332L72.9166 41.7136Z" fill="#CE8B2C"/>
</svg>
