<svg viewBox="0 0 22 23" fill="none" xmlns="http://www.w3.org/2000/svg">
<path d="M12.0931 17.1263H18.8341C19.0492 17.1263 19.2551 17.0507 19.4413 16.9441C19.6277 16.8375 19.8197 16.7037 19.9272 16.519C20.0347 16.3344 20.1095 16.1248 20.1094 15.9117C20.1093 15.6985 20.0349 15.489 19.9272 15.3045L15.3725 7.47038C15.265 7.28574 15.1336 7.15185 14.9474 7.04525C14.7611 6.93868 14.4944 6.86306 14.2794 6.86306C14.0643 6.86306 13.8583 6.93868 13.6721 7.04525C13.4858 7.15185 13.3545 7.28574 13.247 7.47038L12.0931 9.47444L9.7854 5.58762C9.67781 5.40302 9.54663 5.2085 9.36031 5.10194C9.174 4.99534 8.96814 4.98047 8.75304 4.98047C8.53793 4.98047 8.33203 4.99534 8.14572 5.10194C7.95945 5.2085 7.7675 5.40302 7.65991 5.58762L2.01209 15.3045C1.90441 15.489 1.89072 15.6985 1.89063 15.9117C1.89053 16.1248 1.90457 16.3343 2.01209 16.519C2.1196 16.7036 2.31163 16.8375 2.49792 16.9441C2.68421 17.0507 2.89009 17.1263 3.10521 17.1263H7.35625C9.04067 17.1263 10.2667 16.3707 11.1215 14.9401L13.1863 11.357L14.2794 9.47444L17.6195 15.183H13.1863L12.0931 17.1263ZM7.29554 15.183H4.31978L8.75304 7.53109L11 11.357L9.51161 13.9517C8.94399 14.8799 8.29679 15.183 7.29554 15.183Z" fill="#00DC82"/>
</svg>
