<svg  viewBox="0 0 21 19" fill="none" xmlns="http://www.w3.org/2000/svg">
<g clip-path="url(#clip0_229_245)">
<path d="M9.37638 0.0392102C8.5938 0.0426331 7.84646 0.10546 7.18888 0.214991C5.25172 0.537144 4.90001 1.21144 4.90001 2.45495V4.09725H9.47775V4.64468H4.90001H3.18202C1.8516 4.64468 0.686645 5.39742 0.322262 6.82939C-0.0980486 8.47076 -0.116692 9.495 0.322262 11.2089C0.647664 12.4846 1.42477 13.3936 2.75519 13.3936H4.32912V11.4248C4.32912 10.0025 5.63644 8.74792 7.18888 8.74792H11.7613C13.0341 8.74792 14.0502 7.76142 14.0502 6.55818V2.45495C14.0502 1.28714 13.0036 0.409893 11.7613 0.214991C10.9749 0.0917678 10.159 0.0357873 9.37638 0.0392102ZM6.90077 1.36008C7.37362 1.36008 7.75976 1.72951 7.75976 2.18374C7.75976 2.63637 7.37362 3.00238 6.90077 3.00238C6.42622 3.00238 6.04177 2.63637 6.04177 2.18374C6.04177 1.72951 6.42622 1.36008 6.90077 1.36008Z" fill="url(#paint0_linear_229_245)"/>
<path d="M14.6209 4.64453V6.55804C14.6209 8.04155 13.2848 9.29018 11.7612 9.29018H7.18877C5.93631 9.29018 4.8999 10.2992 4.8999 11.4799V15.5831C4.8999 16.751 5.97869 17.4378 7.18877 17.7729C8.63783 18.174 10.0274 18.2464 11.7612 17.7729C12.9136 17.4588 14.0501 16.8267 14.0501 15.5831V13.9408H9.47765V13.3934H14.0501H16.3389C17.6693 13.3934 18.1651 12.5199 18.6278 11.2087C19.1057 9.85888 19.0854 8.56081 18.6278 6.82924C18.299 5.58251 17.671 4.64453 16.3389 4.64453H14.6209ZM12.0493 15.0357C12.5238 15.0357 12.9083 15.4017 12.9083 15.8544C12.9083 16.3086 12.5238 16.678 12.0493 16.678C11.5764 16.678 11.1903 16.3086 11.1903 15.8544C11.1903 15.4017 11.5764 15.0357 12.0493 15.0357Z" fill="url(#paint1_linear_229_245)"/>
</g>
<defs>
<linearGradient id="paint0_linear_229_245" x1="-5.70047e-08" y1="0.0390625" x2="10.0142" y2="9.10449" gradientUnits="userSpaceOnUse">
<stop stop-color="#5A9FD4"/>
<stop offset="1" stop-color="#306998"/>
</linearGradient>
<linearGradient id="paint1_linear_229_245" x1="11.9393" y1="15.7163" x2="8.4495" y2="10.5212" gradientUnits="userSpaceOnUse">
<stop stop-color="#FFD43B"/>
<stop offset="1" stop-color="#FFE873"/>
</linearGradient>
<clipPath id="clip0_229_245">
<rect width="21" height="18" fill="white" transform="translate(0 0.0390625)"/>
</clipPath>
</defs>
</svg>
